<?xml version="1.0" encoding="UTF-8"?>
<svg xmlns="http://www.w3.org/2000/svg" viewBox="0 0 64 64" width="512" height="512"><path fill="white" d="M32,2A30,30,0,1,0,62,32,30.034,30.034,0,0,0,32,2ZM59.975,31h-2a25.975,25.975,0,0,0-.625-4.758l1.932-.517A27.936,27.936,0,0,1,59.975,31Zm-1.2-7.208-1.932.517a25.789,25.789,0,0,0-1.846-4.429l1.734-1A27.819,27.819,0,0,1,58.77,23.792ZM52.48,12.934a28.157,28.157,0,0,1,3.241,4.216l-1.733,1a26.1,26.1,0,0,0-2.922-3.8ZM40.208,5.23a27.819,27.819,0,0,1,4.913,2.044l-1,1.734a25.789,25.789,0,0,0-4.429-1.846Zm5.934,22.527L50.385,32l-4.243,4.243L41.9,32ZM33,4.025a27.936,27.936,0,0,1,5.275.693L37.758,6.65A25.975,25.975,0,0,0,33,6.025Zm10.314,20.9-4.243,4.243L32,22.1l-7.071,7.072-4.243-4.243L32,13.615ZM36.243,32,32,36.243,27.757,32,32,27.757ZM22.1,32l-4.243,4.243L13.615,32l4.243-4.243ZM31,4.025v2a25.975,25.975,0,0,0-4.758.625l-.517-1.932A27.936,27.936,0,0,1,31,4.025ZM23.792,5.23l.517,1.932A25.789,25.789,0,0,0,19.88,9.008l-1-1.734A27.819,27.819,0,0,1,23.792,5.23ZM17.15,8.279l1,1.733a26.1,26.1,0,0,0-3.8,2.922L12.934,11.52A28.157,28.157,0,0,1,17.15,8.279Zm-9.876,10.6,1.734,1a25.789,25.789,0,0,0-1.846,4.429L5.23,23.792A27.819,27.819,0,0,1,7.274,18.879ZM4.718,25.725l1.932.517A25.975,25.975,0,0,0,6.025,31h-2A27.936,27.936,0,0,1,4.718,25.725ZM4.025,33h2a25.975,25.975,0,0,0,.625,4.758l-1.932.517A27.936,27.936,0,0,1,4.025,33ZM5.23,40.208l1.932-.517A25.789,25.789,0,0,0,9.008,44.12l-1.734,1A27.819,27.819,0,0,1,5.23,40.208Zm6.29,10.858A28.157,28.157,0,0,1,8.279,46.85l1.733-1a26.1,26.1,0,0,0,2.922,3.8ZM10.012,18.15l-1.733-1a28.157,28.157,0,0,1,3.241-4.216l1.414,1.414A26.1,26.1,0,0,0,10.012,18.15ZM17.15,55.721a28.157,28.157,0,0,1-4.216-3.241l1.414-1.414a26.1,26.1,0,0,0,3.8,2.922Zm6.642,3.049a27.819,27.819,0,0,1-4.913-2.044l1-1.734a25.789,25.789,0,0,0,4.429,1.846ZM31,59.975a27.936,27.936,0,0,1-5.275-.693l.517-1.932A25.975,25.975,0,0,0,31,57.975Zm-10.314-20.9,4.243-4.243L32,41.9l7.071-7.071,4.243,4.243L32,50.385ZM33,59.975v-2a25.975,25.975,0,0,0,4.758-.625l.517,1.932A27.936,27.936,0,0,1,33,59.975Zm7.208-1.2-.517-1.932a25.789,25.789,0,0,0,4.429-1.846l1,1.734A27.819,27.819,0,0,1,40.208,58.77Zm6.642-3.049-1-1.733a26.1,26.1,0,0,0,3.8-2.922l1.414,1.414A28.157,28.157,0,0,1,46.85,55.721Zm2.8-42.787a26.1,26.1,0,0,0-3.8-2.922l1-1.733a28.157,28.157,0,0,1,4.216,3.241ZM52.48,51.066l-1.414-1.414a26.1,26.1,0,0,0,2.922-3.8l1.733,1A28.157,28.157,0,0,1,52.48,51.066Zm4.246-5.945-1.734-1a25.789,25.789,0,0,0,1.846-4.429l1.932.517A27.819,27.819,0,0,1,56.726,45.121Zm2.556-6.846-1.932-.517A25.975,25.975,0,0,0,57.975,33h2A27.936,27.936,0,0,1,59.282,38.275Z"/></svg>
